<?xml version="1.0" encoding="utf-8"?>
<!-- Generator: Adobe Illustrator 16.0.3, SVG Export Plug-In . SVG Version: 6.00 Build 0)  -->
<!DOCTYPE svg PUBLIC "-//W3C//DTD SVG 1.1//EN" "http://www.w3.org/Graphics/SVG/1.1/DTD/svg11.dtd">
<svg version="1.1" id="Capa_1" xmlns="http://www.w3.org/2000/svg" xmlns:xlink="http://www.w3.org/1999/xlink" x="0px" y="0px"
	 width="100px" height="100px" viewBox="0 0 261.648 284.867" enable-background="new 0 0 261.648 284.867"
	 xml:space="preserve">
<path fill="#141414" opacity="0.8" d="M254.177,71.212c-4.813-8.324-11.349-15.172-18.424-19.257l-79.04-45.64
	C149.641,2.252,140.462,0.007,130.832,0c-9.632,0.007-18.823,2.248-25.893,6.32L25.882,51.955
	C18.831,56.04,12.29,62.876,7.47,71.217C2.662,79.558,0.006,88.636,0,96.799v91.267c0.006,8.165,2.662,17.249,7.475,25.594
	c4.815,8.328,11.356,15.172,18.417,19.254l79.052,45.633c7.063,4.075,16.246,6.313,25.889,6.32c9.63-0.008,18.81-2.245,25.89-6.325
	l79.039-45.635c7.068-4.075,13.604-10.911,18.417-19.247c4.806-8.346,7.461-17.429,7.471-25.604V96.792
	C261.638,88.636,258.983,79.558,254.177,71.212z M140.313,22.55c2.15,0.564,4.1,1.329,5.729,2.274l79.047,45.628
	c2.582,1.498,5.263,4,7.622,7.043l-21.912,37.614c-10.4-30.363-37.607-52.977-70.486-56.668V22.55z M140.313,77.576
	c28.57,4.161,51.213,26.806,55.373,55.371h-39.314c-2.753-7.417-8.646-13.308-16.059-16.066V77.576z M121.33,116.881
	c-7.41,2.758-13.297,8.649-16.056,16.061H65.968c4.156-28.56,26.81-51.205,55.362-55.366V116.881z M140.313,167.986
	c7.413-2.766,13.305-8.654,16.059-16.059h39.314c-4.16,28.557-26.803,51.195-55.373,55.363V167.986z M36.571,70.442l79.045-45.628
	c1.621-0.945,3.572-1.693,5.713-2.265v35.892c-32.867,3.691-60.086,26.305-70.485,56.668l-21.91-37.614
	C31.296,74.452,33.979,71.942,36.571,70.442z M21.36,182.657v-80.452l23.432,40.229L21.36,182.657z M121.33,262.317
	c-2.142-0.564-4.092-1.339-5.717-2.27l-79.047-45.636c-2.591-1.49-5.27-3.992-7.631-7.041l21.91-37.617
	c10.399,30.358,37.618,52.986,70.485,56.668V262.317z M121.33,207.291c-28.553-4.168-51.207-26.806-55.362-55.363h39.306
	c2.759,7.405,8.646,13.293,16.056,16.059V207.291z M225.08,214.423l-79.042,45.632c-1.625,0.934-3.574,1.69-5.724,2.263v-35.895
	c32.879-3.682,60.086-26.31,70.486-56.668l21.912,37.617C230.352,210.42,227.671,212.93,225.08,214.423z M240.295,182.657
	l-23.435-40.224l23.435-40.229V182.657z"/>
</svg>
