<?xml version="1.0" encoding="utf-8"?>
<!-- Generator: Adobe Illustrator 16.0.3, SVG Export Plug-In . SVG Version: 6.00 Build 0)  -->
<!DOCTYPE svg PUBLIC "-//W3C//DTD SVG 1.1//EN" "http://www.w3.org/Graphics/SVG/1.1/DTD/svg11.dtd">
<svg version="1.1" id="Capa_1" xmlns="http://www.w3.org/2000/svg" xmlns:xlink="http://www.w3.org/1999/xlink" x="0px" y="0px"
	 width="431.518px" height="113.867px" viewBox="0 0 431.518 113.867" enable-background="new 0 0 431.518 113.867"
	 xml:space="preserve">
<g>
	<g>
		<path fill="#FFFFFF" d="M101.6,28.465c-1.925-3.327-4.537-6.064-7.365-7.697L62.642,2.524C59.815,0.9,56.146,0.003,52.296,0
			c-3.85,0.003-7.524,0.898-10.35,2.526L10.346,20.768c-2.819,1.633-5.433,4.365-7.36,7.699C1.064,31.801,0.002,35.43,0,38.692
			v36.481c0.002,3.264,1.064,6.895,2.988,10.23c1.925,3.329,4.539,6.064,7.361,7.696l31.599,18.24
			c2.823,1.629,6.494,2.523,10.348,2.526c3.85-0.003,7.519-0.897,10.349-2.528l31.593-18.241c2.826-1.629,5.438-4.361,7.362-7.693
			c1.92-3.336,2.982-6.967,2.986-10.234v-36.48C104.583,35.43,103.521,31.801,101.6,28.465z M56.086,9.014
			c0.858,0.226,1.638,0.531,2.29,0.909l31.596,18.238c1.033,0.599,2.104,1.599,3.048,2.815l-8.759,15.035
			C80.103,33.875,69.228,24.836,56.086,23.36V9.014z M56.086,31.009c11.419,1.663,20.47,10.715,22.133,22.133H62.505
			c-1.101-2.965-3.456-5.319-6.418-6.422V31.009z M48.498,46.72c-2.962,1.103-5.315,3.457-6.418,6.42H26.369
			c1.661-11.416,10.716-20.468,22.129-22.131V46.72z M56.086,67.147c2.962-1.105,5.317-3.459,6.418-6.419H78.22
			c-1.664,11.415-10.714,20.464-22.133,22.13V67.147z M14.618,28.157L46.214,9.919c0.648-0.378,1.428-0.677,2.284-0.905V23.36
			C35.36,24.836,24.48,33.875,20.324,46.012l-8.758-15.035C12.51,29.76,13.582,28.757,14.618,28.157z M8.538,73.012V40.854
			l9.366,16.08L8.538,73.012z M48.498,104.854c-0.856-0.226-1.636-0.535-2.285-0.907L14.616,85.705
			c-1.036-0.596-2.106-1.596-3.05-2.814l8.758-15.036c4.157,12.135,15.037,21.18,28.174,22.651V104.854z M48.498,82.858
			c-11.413-1.666-20.468-10.715-22.129-22.13H42.08c1.103,2.96,3.456,5.313,6.418,6.419V82.858z M89.969,85.709l-31.595,18.24
			c-0.649,0.373-1.429,0.676-2.288,0.904V90.506c13.142-1.472,24.017-10.517,28.174-22.651l8.759,15.036
			C92.076,84.109,91.005,85.112,89.969,85.709z M96.05,73.012l-9.366-16.078l9.366-16.08V73.012z"/>
	</g>
	<g>
		<path fill="#FFFFFF" d="M140.072,73.193V41.902c0-4.93,0.975-8.316,2.926-10.159c1.951-1.842,5.417-2.764,10.403-2.764h23.895
			v12.272h-22.188c-1.572,0.163-2.52,1.004-2.845,2.52v24.87c0,1.788,0.189,2.98,0.569,3.576c0.541,0.922,1.571,1.382,3.089,1.382
			h21.375v12.272h-25.683c-1.355,0-2.792-0.297-4.308-0.894C142.482,83.082,140.072,79.154,140.072,73.193z"/>
		<path fill="#FFFFFF" d="M183.553,76.281V52.793c0-0.487,0.081-1.138,0.244-1.95c1.029-5.093,4.523-7.64,10.484-7.64h14.548
			c3.196,0,5.783,0.813,7.762,2.438c1.977,1.626,2.966,4.011,2.966,7.152v23.488c0,3.144-0.989,5.527-2.966,7.152
			c-1.979,1.626-4.565,2.438-7.762,2.438h-14.548c-6.339,0-9.834-2.546-10.484-7.64L183.553,76.281z M196.787,74.981h9.537
			c0.591,0,1.144-0.335,1.656-1.009c0.512-0.672,0.768-1.331,0.768-1.976v-15c0-0.591-0.256-1.222-0.768-1.896
			c-0.512-0.672-1.064-1.008-1.656-1.008h-9.537c-0.646,0-1.212,0.322-1.697,0.968c-0.485,0.645-0.728,1.29-0.728,1.936v15.081
			c0,0.646,0.242,1.29,0.728,1.936C195.575,74.659,196.14,74.981,196.787,74.981z"/>
		<path fill="#FFFFFF" d="M227.034,85.872v-32.51c0-0.541,0.053-1.191,0.162-1.951c0.813-5.472,4.145-8.208,9.996-8.208h15.036
			c5.853,0,9.185,2.736,9.997,8.208c0.107,0.76,0.162,1.41,0.162,1.951v32.51h-10.809V57.093c0-0.269-0.028-0.486-0.082-0.648
			c-0.217-1.567-1.381-2.351-3.494-2.351h-6.665c-2.113,0-3.278,0.783-3.495,2.351v29.428H227.034z"/>
		<path fill="#FFFFFF" d="M269.865,85.872V27.273h10.81v15.93h7.233v10.891h-7.233v31.778H269.865z"/>
		<path fill="#FFFFFF" d="M291.971,76.2v-8.696c0-3.196,0.931-5.675,2.795-7.437c1.862-1.76,4.388-2.642,7.573-2.642h14.421V55.15
			c-0.055-0.921-0.818-1.49-2.291-1.707h-22.498v-10.24h24.789c0.322,0,0.94,0.055,1.854,0.162c5.055,0.597,7.985,3.251,8.793,7.965
			c0.107,0.65,0.162,1.274,0.162,1.869v22.676c0,0.76-0.055,1.41-0.163,1.951c-0.487,2.438-1.599,4.389-3.332,5.852
			c-1.734,1.463-3.82,2.194-6.258,2.194h-14.874c-6.285,0-9.889-2.573-10.809-7.721C292.187,77.772,292.134,77.122,291.971,76.2z
			 M303.309,74.361c0.352,0.465,0.907,0.78,1.666,0.943c0.163,0.057,0.352,0.083,0.569,0.083h8.452c1.842,0,2.764-0.813,2.764-2.438
			v-3.007c0-1.028-0.461-1.761-1.382-2.194c-0.218-0.216-0.705-0.325-1.463-0.325h-9.51c-0.922,0.165-1.463,0.876-1.625,2.135v3.366
			C302.78,73.417,302.956,73.896,303.309,74.361z"/>
		<path fill="#FFFFFF" d="M333.665,32.313c-0.109-1.951,0.5-3.604,1.828-4.958c1.327-1.354,2.967-2.032,4.917-2.032
			c1.842,0,3.427,0.664,4.755,1.991c1.327,1.328,1.991,2.913,1.991,4.755c0,1.897-0.664,3.495-1.991,4.795
			c-1.328,1.301-2.939,1.951-4.836,1.951c-1.843,0-3.387-0.623-4.633-1.87C334.449,35.699,333.772,34.154,333.665,32.313z
			 M335.046,85.872V43.203h10.81v42.669H335.046z"/>
		<path fill="#FFFFFF" d="M353.332,85.872v-32.51c0-0.541,0.054-1.191,0.163-1.951c0.813-5.472,4.145-8.208,9.997-8.208h15.035
			c5.852,0,9.185,2.736,9.997,8.208c0.107,0.76,0.162,1.41,0.162,1.951v32.51h-10.81V57.093c0-0.269-0.027-0.486-0.081-0.648
			c-0.217-1.567-1.382-2.351-3.494-2.351h-6.665c-2.113,0-3.279,0.783-3.495,2.351v29.428H353.332z"/>
		<path fill="#FFFFFF" d="M396.163,85.872v-32.51c0-0.541,0.054-1.191,0.163-1.951c0.813-5.472,4.145-8.208,9.997-8.208h15.035
			c5.852,0,9.185,2.736,9.997,8.208c0.107,0.76,0.162,1.41,0.162,1.951v32.51h-10.81V57.093c0-0.269-0.027-0.486-0.081-0.648
			c-0.217-1.567-1.382-2.351-3.494-2.351h-6.665c-2.113,0-3.279,0.783-3.495,2.351v29.428H396.163z"/>
	</g>
</g>
</svg>
